solid OpenSCAD_Model
  facet normal 0.707107 0 -0.707107
    outer loop
      vertex 15.1 -37.5 20.5
      vertex 14.9873 -34.5 20.3873
      vertex 15.1 -34.5 20.5
    endloop
  endfacet
  facet normal 0.707107 0 -0.707107
    outer loop
      vertex 14.9873 -34.5 20.3873
      vertex 15.1 -37.5 20.5
      vertex 14.9873 -37.5 20.3873
    endloop
  endfacet
  facet normal -1 0 0
    outer loop
      vertex 55.6 -37.5 11.5
      vertex 55.6 -34.5 19.5
      vertex 55.6 -34.5 11.5
    endloop
  endfacet
  facet normal -1 -0 0
    outer loop
      vertex 55.6 -34.5 19.5
      vertex 55.6 -37.5 11.5
      vertex 55.6 -37.5 19.5
    endloop
  endfacet
  facet normal -1 0 0
    outer loop
      vertex 55.6 -37.5 0.5
      vertex 55.6 -34.5 8.5
      vertex 55.6 -34.5 0.5
    endloop
  endfacet
  facet normal -1 -0 0
    outer loop
      vertex 55.6 -34.5 8.5
      vertex 55.6 -37.5 0.5
      vertex 55.6 -37.5 8.5
    endloop
  endfacet
  facet normal 1 -0 0
    outer loop
      vertex 14.1 -37.5 19.5
      vertex 14.1 -34.5 11.5
      vertex 14.1 -34.5 19.5
    endloop
  endfacet
  facet normal 1 0 0
    outer loop
      vertex 14.1 -34.5 11.5
      vertex 14.1 -37.5 19.5
      vertex 14.1 -37.5 11.5
    endloop
  endfacet
  facet normal 1 -0 0
    outer loop
      vertex 14.1 -37.5 8.5
      vertex 14.1 -34.5 0.5
      vertex 14.1 -34.5 8.5
    endloop
  endfacet
  facet normal 1 0 0
    outer loop
      vertex 14.1 -34.5 0.5
      vertex 14.1 -37.5 8.5
      vertex 14.1 -37.5 0.5
    endloop
  endfacet
  facet normal -0.707107 0 -0.707107
    outer loop
      vertex 55.6 -37.5 19.5
      vertex 55.409 -34.5 19.691
      vertex 55.6 -34.5 19.5
    endloop
  endfacet
  facet normal -0.707107 -0 -0.707107
    outer loop
      vertex 55.409 -34.5 19.691
      vertex 55.6 -37.5 19.5
      vertex 55.409 -37.5 19.691
    endloop
  endfacet
  facet normal -0.707101 0 -0.707113
    outer loop
      vertex 54.6 -37.5 20.5
      vertex 54.8212 -34.5 20.2788
      vertex 54.8212 -37.5 20.2788
    endloop
  endfacet
  facet normal -0.707101 0 -0.707113
    outer loop
      vertex 54.8212 -34.5 20.2788
      vertex 54.6 -37.5 20.5
      vertex 54.6 -34.5 20.5
    endloop
  endfacet
  facet normal -0.707107 0 0.707107
    outer loop
      vertex 55.409 -37.5 0.309017
      vertex 55.6 -34.5 0.5
      vertex 55.409 -34.5 0.309017
    endloop
  endfacet
  facet normal -0.707107 0 0.707107
    outer loop
      vertex 55.6 -34.5 0.5
      vertex 55.409 -37.5 0.309017
      vertex 55.6 -37.5 0.5
    endloop
  endfacet
  facet normal 0 0 -1
    outer loop
      vertex 15.1 -37.5 20.5
      vertex 54.6 -34.5 20.5
      vertex 54.6 -37.5 20.5
    endloop
  endfacet
  facet normal -0 0 -1
    outer loop
      vertex 54.6 -34.5 20.5
      vertex 15.1 -37.5 20.5
      vertex 15.1 -34.5 20.5
    endloop
  endfacet
  facet normal -1 0 0
    outer loop
      vertex 55.409 -37.5 19.691
      vertex 55.409 -34.5 20.0878
      vertex 55.409 -34.5 19.691
    endloop
  endfacet
  facet normal -1 -0 0
    outer loop
      vertex 55.409 -34.5 20.0878
      vertex 55.409 -37.5 19.691
      vertex 55.409 -37.5 20.0878
    endloop
  endfacet
  facet normal -0.30902 0 -0.951055
    outer loop
      vertex 54.8212 -37.5 20.2788
      vertex 55.409 -34.5 20.0878
      vertex 55.409 -37.5 20.0878
    endloop
  endfacet
  facet normal -0.30902 0 -0.951055
    outer loop
      vertex 55.409 -34.5 20.0878
      vertex 54.8212 -37.5 20.2788
      vertex 54.8212 -34.5 20.2788
    endloop
  endfacet
  facet normal -0.309017 0 -0.951056
    outer loop
      vertex 14.791 -37.5 20.4511
      vertex 14.9873 -34.5 20.3873
      vertex 14.9873 -37.5 20.3873
    endloop
  endfacet
  facet normal -0.309017 0 -0.951056
    outer loop
      vertex 14.9873 -34.5 20.3873
      vertex 14.791 -37.5 20.4511
      vertex 14.791 -34.5 20.4511
    endloop
  endfacet
  facet normal 0.809017 0 -0.587785
    outer loop
      vertex 14.791 -37.5 20.4511
      vertex 14.1 -34.5 19.5
      vertex 14.791 -34.5 20.4511
    endloop
  endfacet
  facet normal 0.809017 0 -0.587785
    outer loop
      vertex 14.1 -34.5 19.5
      vertex 14.791 -37.5 20.4511
      vertex 14.1 -37.5 19.5
    endloop
  endfacet
  facet normal 0.809017 -0 0.587786
    outer loop
      vertex 14.1 -37.5 0.5
      vertex 14.4633 -34.5 0
      vertex 14.1 -34.5 0.5
    endloop
  endfacet
  facet normal 0.809017 0 0.587786
    outer loop
      vertex 14.4633 -34.5 0
      vertex 14.1 -37.5 0.5
      vertex 14.4633 -37.5 0
    endloop
  endfacet
  facet normal -1 0 0
    outer loop
      vertex 55.409 -37.5 0
      vertex 55.409 -34.5 0.309017
      vertex 55.409 -34.5 0
    endloop
  endfacet
  facet normal -1 -0 0
    outer loop
      vertex 55.409 -34.5 0.309017
      vertex 55.409 -37.5 0
      vertex 55.409 -37.5 0.309017
    endloop
  endfacet
  facet normal 0.900969 -0 0.433884
    outer loop
      vertex 57.9918 -37.5 15
      vertex 58.7856 -34.5 13.3517
      vertex 57.9918 -34.5 15
    endloop
  endfacet
  facet normal 0.900969 0 0.433884
    outer loop
      vertex 58.7856 -34.5 13.3517
      vertex 57.9918 -37.5 15
      vertex 58.7856 -37.5 13.3517
    endloop
  endfacet
  facet normal -1 0 0
    outer loop
      vertex 61.9994 -37.5 14.0853
      vertex 61.9994 -34.5 15.9147
      vertex 61.9994 -34.5 14.0853
    endloop
  endfacet
  facet normal -1 -0 0
    outer loop
      vertex 61.9994 -34.5 15.9147
      vertex 61.9994 -37.5 14.0853
      vertex 61.9994 -37.5 15.9147
    endloop
  endfacet
  facet normal 0.222521 0 0.974928
    outer loop
      vertex 58.7856 -34.5 13.3517
      vertex 60.5691 -37.5 12.9447
      vertex 60.5691 -34.5 12.9447
    endloop
  endfacet
  facet normal 0.222521 0 0.974928
    outer loop
      vertex 60.5691 -37.5 12.9447
      vertex 58.7856 -34.5 13.3517
      vertex 58.7856 -37.5 13.3517
    endloop
  endfacet
  facet normal -0.62349 0 0.781832
    outer loop
      vertex 60.5691 -34.5 12.9447
      vertex 61.9994 -37.5 14.0853
      vertex 61.9994 -34.5 14.0853
    endloop
  endfacet
  facet normal -0.62349 0 0.781832
    outer loop
      vertex 61.9994 -37.5 14.0853
      vertex 60.5691 -34.5 12.9447
      vertex 60.5691 -37.5 12.9447
    endloop
  endfacet
  facet normal 0.900969 0 -0.433883
    outer loop
      vertex 58.7856 -37.5 16.6483
      vertex 57.9918 -34.5 15
      vertex 58.7856 -34.5 16.6483
    endloop
  endfacet
  facet normal 0.900969 0 -0.433883
    outer loop
      vertex 57.9918 -34.5 15
      vertex 58.7856 -37.5 16.6483
      vertex 57.9918 -37.5 15
    endloop
  endfacet
  facet normal 0.222521 0 -0.974928
    outer loop
      vertex 58.7856 -37.5 16.6483
      vertex 60.5691 -34.5 17.0553
      vertex 60.5691 -37.5 17.0553
    endloop
  endfacet
  facet normal 0.222521 0 -0.974928
    outer loop
      vertex 60.5691 -34.5 17.0553
      vertex 58.7856 -37.5 16.6483
      vertex 58.7856 -34.5 16.6483
    endloop
  endfacet
  facet normal -0.62349 0 -0.781832
    outer loop
      vertex 60.5691 -37.5 17.0553
      vertex 61.9994 -34.5 15.9147
      vertex 61.9994 -37.5 15.9147
    endloop
  endfacet
  facet normal -0.62349 0 -0.781832
    outer loop
      vertex 61.9994 -34.5 15.9147
      vertex 60.5691 -37.5 17.0553
      vertex 60.5691 -34.5 17.0553
    endloop
  endfacet
  facet normal 0.900969 -0 0.433884
    outer loop
      vertex 57.9918 -37.5 5
      vertex 58.7856 -34.5 3.35174
      vertex 57.9918 -34.5 5
    endloop
  endfacet
  facet normal 0.900969 0 0.433884
    outer loop
      vertex 58.7856 -34.5 3.35174
      vertex 57.9918 -37.5 5
      vertex 58.7856 -37.5 3.35174
    endloop
  endfacet
  facet normal -1 0 0
    outer loop
      vertex 61.9994 -37.5 4.08529
      vertex 61.9994 -34.5 5.91471
      vertex 61.9994 -34.5 4.08529
    endloop
  endfacet
  facet normal -1 -0 0
    outer loop
      vertex 61.9994 -34.5 5.91471
      vertex 61.9994 -37.5 4.08529
      vertex 61.9994 -37.5 5.91471
    endloop
  endfacet
  facet normal 0.222521 0 0.974928
    outer loop
      vertex 58.7856 -34.5 3.35174
      vertex 60.5691 -37.5 2.94466
      vertex 60.5691 -34.5 2.94466
    endloop
  endfacet
  facet normal 0.222521 0 0.974928
    outer loop
      vertex 60.5691 -37.5 2.94466
      vertex 58.7856 -34.5 3.35174
      vertex 58.7856 -37.5 3.35174
    endloop
  endfacet
  facet normal -0.62349 0 -0.781832
    outer loop
      vertex 60.5691 -37.5 7.05534
      vertex 61.9994 -34.5 5.91471
      vertex 61.9994 -37.5 5.91471
    endloop
  endfacet
  facet normal -0.62349 0 -0.781832
    outer loop
      vertex 61.9994 -34.5 5.91471
      vertex 60.5691 -37.5 7.05534
      vertex 60.5691 -34.5 7.05534
    endloop
  endfacet
  facet normal -0.62349 0 0.781832
    outer loop
      vertex 60.5691 -34.5 2.94466
      vertex 61.9994 -37.5 4.08529
      vertex 61.9994 -34.5 4.08529
    endloop
  endfacet
  facet normal -0.62349 0 0.781832
    outer loop
      vertex 61.9994 -37.5 4.08529
      vertex 60.5691 -34.5 2.94466
      vertex 60.5691 -37.5 2.94466
    endloop
  endfacet
  facet normal 0.222521 0 -0.974928
    outer loop
      vertex 58.7856 -37.5 6.64826
      vertex 60.5691 -34.5 7.05534
      vertex 60.5691 -37.5 7.05534
    endloop
  endfacet
  facet normal 0.222521 0 -0.974928
    outer loop
      vertex 60.5691 -34.5 7.05534
      vertex 58.7856 -37.5 6.64826
      vertex 58.7856 -34.5 6.64826
    endloop
  endfacet
  facet normal 0.900969 0 -0.433884
    outer loop
      vertex 58.7856 -37.5 6.64826
      vertex 57.9918 -34.5 5
      vertex 58.7856 -34.5 6.64826
    endloop
  endfacet
  facet normal 0.900969 0 -0.433884
    outer loop
      vertex 57.9918 -34.5 5
      vertex 58.7856 -37.5 6.64826
      vertex 57.9918 -37.5 5
    endloop
  endfacet
  facet normal 0.900969 -0 0.433884
    outer loop
      vertex 7.8918 -37.5 15
      vertex 8.68556 -34.5 13.3517
      vertex 7.8918 -34.5 15
    endloop
  endfacet
  facet normal 0.900969 0 0.433884
    outer loop
      vertex 8.68556 -34.5 13.3517
      vertex 7.8918 -37.5 15
      vertex 8.68556 -37.5 13.3517
    endloop
  endfacet
  facet normal -1 0 0
    outer loop
      vertex 11.8994 -37.5 14.0853
      vertex 11.8994 -34.5 15.9147
      vertex 11.8994 -34.5 14.0853
    endloop
  endfacet
  facet normal -1 -0 0
    outer loop
      vertex 11.8994 -34.5 15.9147
      vertex 11.8994 -37.5 14.0853
      vertex 11.8994 -37.5 15.9147
    endloop
  endfacet
  facet normal 0.222521 0 0.974928
    outer loop
      vertex 8.68556 -34.5 13.3517
      vertex 10.4691 -37.5 12.9447
      vertex 10.4691 -34.5 12.9447
    endloop
  endfacet
  facet normal 0.222521 0 0.974928
    outer loop
      vertex 10.4691 -37.5 12.9447
      vertex 8.68556 -34.5 13.3517
      vertex 8.68556 -37.5 13.3517
    endloop
  endfacet
  facet normal -0.62349 0 0.781831
    outer loop
      vertex 10.4691 -34.5 12.9447
      vertex 11.8994 -37.5 14.0853
      vertex 11.8994 -34.5 14.0853
    endloop
  endfacet
  facet normal -0.62349 0 0.781831
    outer loop
      vertex 11.8994 -37.5 14.0853
      vertex 10.4691 -34.5 12.9447
      vertex 10.4691 -37.5 12.9447
    endloop
  endfacet
  facet normal 0.900969 0 -0.433884
    outer loop
      vertex 8.68556 -37.5 16.6483
      vertex 7.8918 -34.5 15
      vertex 8.68556 -34.5 16.6483
    endloop
  endfacet
  facet normal 0.900969 0 -0.433884
    outer loop
      vertex 7.8918 -34.5 15
      vertex 8.68556 -37.5 16.6483
      vertex 7.8918 -37.5 15
    endloop
  endfacet
  facet normal 0.222522 0 -0.974928
    outer loop
      vertex 8.68556 -37.5 16.6483
      vertex 10.4691 -34.5 17.0553
      vertex 10.4691 -37.5 17.0553
    endloop
  endfacet
  facet normal 0.222522 0 -0.974928
    outer loop
      vertex 10.4691 -34.5 17.0553
      vertex 8.68556 -37.5 16.6483
      vertex 8.68556 -34.5 16.6483
    endloop
  endfacet
  facet normal -0.62349 0 -0.781831
    outer loop
      vertex 10.4691 -37.5 17.0553
      vertex 11.8994 -34.5 15.9147
      vertex 11.8994 -37.5 15.9147
    endloop
  endfacet
  facet normal -0.62349 0 -0.781831
    outer loop
      vertex 11.8994 -34.5 15.9147
      vertex 10.4691 -37.5 17.0553
      vertex 10.4691 -34.5 17.0553
    endloop
  endfacet
  facet normal 0.900969 -0 0.433884
    outer loop
      vertex 7.8918 -37.5 5
      vertex 8.68556 -34.5 3.35174
      vertex 7.8918 -34.5 5
    endloop
  endfacet
  facet normal 0.900969 0 0.433884
    outer loop
      vertex 8.68556 -34.5 3.35174
      vertex 7.8918 -37.5 5
      vertex 8.68556 -37.5 3.35174
    endloop
  endfacet
  facet normal -1 0 0
    outer loop
      vertex 11.8994 -37.5 4.08529
      vertex 11.8994 -34.5 5.91471
      vertex 11.8994 -34.5 4.08529
    endloop
  endfacet
  facet normal -1 -0 0
    outer loop
      vertex 11.8994 -34.5 5.91471
      vertex 11.8994 -37.5 4.08529
      vertex 11.8994 -37.5 5.91471
    endloop
  endfacet
  facet normal 0.222521 0 0.974928
    outer loop
      vertex 8.68556 -34.5 3.35174
      vertex 10.4691 -37.5 2.94466
      vertex 10.4691 -34.5 2.94466
    endloop
  endfacet
  facet normal 0.222521 0 0.974928
    outer loop
      vertex 10.4691 -37.5 2.94466
      vertex 8.68556 -34.5 3.35174
      vertex 8.68556 -37.5 3.35174
    endloop
  endfacet
  facet normal -0.62349 0 0.781831
    outer loop
      vertex 10.4691 -34.5 2.94466
      vertex 11.8994 -37.5 4.08529
      vertex 11.8994 -34.5 4.08529
    endloop
  endfacet
  facet normal -0.62349 0 0.781831
    outer loop
      vertex 11.8994 -37.5 4.08529
      vertex 10.4691 -34.5 2.94466
      vertex 10.4691 -37.5 2.94466
    endloop
  endfacet
  facet normal 0.900969 0 -0.433884
    outer loop
      vertex 8.68556 -37.5 6.64826
      vertex 7.8918 -34.5 5
      vertex 8.68556 -34.5 6.64826
    endloop
  endfacet
  facet normal 0.900969 0 -0.433884
    outer loop
      vertex 7.8918 -34.5 5
      vertex 8.68556 -37.5 6.64826
      vertex 7.8918 -37.5 5
    endloop
  endfacet
  facet normal 0.222521 0 -0.974928
    outer loop
      vertex 8.68556 -37.5 6.64826
      vertex 10.4691 -34.5 7.05534
      vertex 10.4691 -37.5 7.05534
    endloop
  endfacet
  facet normal 0.222521 0 -0.974928
    outer loop
      vertex 10.4691 -34.5 7.05534
      vertex 8.68556 -37.5 6.64826
      vertex 8.68556 -34.5 6.64826
    endloop
  endfacet
  facet normal -0.62349 0 -0.781831
    outer loop
      vertex 10.4691 -37.5 7.05534
      vertex 11.8994 -34.5 5.91471
      vertex 11.8994 -37.5 5.91471
    endloop
  endfacet
  facet normal -0.62349 0 -0.781831
    outer loop
      vertex 11.8994 -34.5 5.91471
      vertex 10.4691 -37.5 7.05534
      vertex 10.4691 -34.5 7.05534
    endloop
  endfacet
  facet normal 0.707107 0 -0.707107
    outer loop
      vertex 10.1 -37.5 11.5
      vertex 10.0436 -34.5 11.4436
      vertex 10.1 -34.5 11.5
    endloop
  endfacet
  facet normal 0.707107 0 -0.707107
    outer loop
      vertex 10.0436 -34.5 11.4436
      vertex 10.1 -37.5 11.5
      vertex 10.0436 -37.5 11.4436
    endloop
  endfacet
  facet normal 0.707107 -0 0.707107
    outer loop
      vertex 10.0436 -37.5 8.55636
      vertex 10.1 -34.5 8.5
      vertex 10.0436 -34.5 8.55636
    endloop
  endfacet
  facet normal 0.707107 0 0.707107
    outer loop
      vertex 10.1 -34.5 8.5
      vertex 10.0436 -37.5 8.55636
      vertex 10.1 -37.5 8.5
    endloop
  endfacet
  facet normal -1 0 0
    outer loop
      vertex 60.1 -37.5 9
      vertex 60.1 -34.5 11
      vertex 60.1 -34.5 9
    endloop
  endfacet
  facet normal -1 -0 0
    outer loop
      vertex 60.1 -34.5 11
      vertex 60.1 -37.5 9
      vertex 60.1 -37.5 11
    endloop
  endfacet
  facet normal 1 -0 0
    outer loop
      vertex 9.6 -37.5 11
      vertex 9.6 -34.5 9
      vertex 9.6 -34.5 11
    endloop
  endfacet
  facet normal 1 0 0
    outer loop
      vertex 9.6 -34.5 9
      vertex 9.6 -37.5 11
      vertex 9.6 -37.5 9
    endloop
  endfacet
  facet normal -0 0 1
    outer loop
      vertex 10.1 -34.5 8.5
      vertex 14.1 -37.5 8.5
      vertex 14.1 -34.5 8.5
    endloop
  endfacet
  facet normal 0 0 1
    outer loop
      vertex 14.1 -37.5 8.5
      vertex 10.1 -34.5 8.5
      vertex 10.1 -37.5 8.5
    endloop
  endfacet
  facet normal -0 0 1
    outer loop
      vertex 55.6 -34.5 8.5
      vertex 59.6 -37.5 8.5
      vertex 59.6 -34.5 8.5
    endloop
  endfacet
  facet normal 0 0 1
    outer loop
      vertex 59.6 -37.5 8.5
      vertex 55.6 -34.5 8.5
      vertex 55.6 -37.5 8.5
    endloop
  endfacet
  facet normal -0.707114 0 -0.7071
    outer loop
      vertex 60.1 -37.5 11
      vertex 60.0045 -34.5 11.0955
      vertex 60.1 -34.5 11
    endloop
  endfacet
  facet normal -0.707114 -0 -0.7071
    outer loop
      vertex 60.0045 -34.5 11.0955
      vertex 60.1 -37.5 11
      vertex 60.0045 -37.5 11.0955
    endloop
  endfacet
  facet normal -0.707107 0 -0.707107
    outer loop
      vertex 59.7106 -37.5 11.3894
      vertex 59.6 -34.5 11.5
      vertex 59.7106 -34.5 11.3894
    endloop
  endfacet
  facet normal -0.707107 -0 -0.707107
    outer loop
      vertex 59.6 -34.5 11.5
      vertex 59.7106 -37.5 11.3894
      vertex 59.6 -37.5 11.5
    endloop
  endfacet
  facet normal -0.707114 0 0.7071
    outer loop
      vertex 60.0045 -37.5 8.90451
      vertex 60.1 -34.5 9
      vertex 60.0045 -34.5 8.90451
    endloop
  endfacet
  facet normal -0.707114 0 0.7071
    outer loop
      vertex 60.1 -34.5 9
      vertex 60.0045 -37.5 8.90451
      vertex 60.1 -37.5 9
    endloop
  endfacet
  facet normal -0.707101 0 0.707113
    outer loop
      vertex 59.6 -34.5 8.5
      vertex 59.7106 -37.5 8.61062
      vertex 59.7106 -34.5 8.61062
    endloop
  endfacet
  facet normal -0.707101 0 0.707113
    outer loop
      vertex 59.7106 -37.5 8.61062
      vertex 59.6 -34.5 8.5
      vertex 59.6 -37.5 8.5
    endloop
  endfacet
  facet normal 0 0 -1
    outer loop
      vertex 10.1 -37.5 11.5
      vertex 14.1 -34.5 11.5
      vertex 14.1 -37.5 11.5
    endloop
  endfacet
  facet normal -0 0 -1
    outer loop
      vertex 14.1 -34.5 11.5
      vertex 10.1 -37.5 11.5
      vertex 10.1 -34.5 11.5
    endloop
  endfacet
  facet normal 0 0 -1
    outer loop
      vertex 55.6 -37.5 11.5
      vertex 59.6 -34.5 11.5
      vertex 59.6 -37.5 11.5
    endloop
  endfacet
  facet normal -0 0 -1
    outer loop
      vertex 59.6 -34.5 11.5
      vertex 55.6 -37.5 11.5
      vertex 55.6 -34.5 11.5
    endloop
  endfacet
  facet normal -1 0 0
    outer loop
      vertex 60.0045 -37.5 11.0955
      vertex 60.0045 -34.5 11.2939
      vertex 60.0045 -34.5 11.0955
    endloop
  endfacet
  facet normal -1 -0 0
    outer loop
      vertex 60.0045 -34.5 11.2939
      vertex 60.0045 -37.5 11.0955
      vertex 60.0045 -37.5 11.2939
    endloop
  endfacet
  facet normal -0.309017 0 -0.951057
    outer loop
      vertex 59.7106 -37.5 11.3894
      vertex 60.0045 -34.5 11.2939
      vertex 60.0045 -37.5 11.2939
    endloop
  endfacet
  facet normal -0.309017 0 -0.951057
    outer loop
      vertex 60.0045 -34.5 11.2939
      vertex 59.7106 -37.5 11.3894
      vertex 59.7106 -34.5 11.3894
    endloop
  endfacet
  facet normal -0.309019 0 -0.951056
    outer loop
      vertex 9.94549 -37.5 11.4755
      vertex 10.0436 -34.5 11.4436
      vertex 10.0436 -37.5 11.4436
    endloop
  endfacet
  facet normal -0.309019 0 -0.951056
    outer loop
      vertex 10.0436 -34.5 11.4436
      vertex 9.94549 -37.5 11.4755
      vertex 9.94549 -34.5 11.4755
    endloop
  endfacet
  facet normal 0.809017 0 -0.587786
    outer loop
      vertex 9.94549 -37.5 11.4755
      vertex 9.6 -34.5 11
      vertex 9.94549 -34.5 11.4755
    endloop
  endfacet
  facet normal 0.809017 0 -0.587786
    outer loop
      vertex 9.6 -34.5 11
      vertex 9.94549 -37.5 11.4755
      vertex 9.6 -37.5 11
    endloop
  endfacet
  facet normal 0.809016 -0 0.587787
    outer loop
      vertex 9.6 -37.5 9
      vertex 9.94549 -34.5 8.52447
      vertex 9.6 -34.5 9
    endloop
  endfacet
  facet normal 0.809016 0 0.587787
    outer loop
      vertex 9.94549 -34.5 8.52447
      vertex 9.6 -37.5 9
      vertex 9.94549 -37.5 8.52447
    endloop
  endfacet
  facet normal -0.309022 0 0.951055
    outer loop
      vertex 9.94549 -34.5 8.52447
      vertex 10.0436 -37.5 8.55636
      vertex 10.0436 -34.5 8.55636
    endloop
  endfacet
  facet normal -0.309022 0 0.951055
    outer loop
      vertex 10.0436 -37.5 8.55636
      vertex 9.94549 -34.5 8.52447
      vertex 9.94549 -37.5 8.52447
    endloop
  endfacet
  facet normal -1 0 0
    outer loop
      vertex 60.0045 -37.5 8.70611
      vertex 60.0045 -34.5 8.90451
      vertex 60.0045 -34.5 8.70611
    endloop
  endfacet
  facet normal -1 -0 0
    outer loop
      vertex 60.0045 -34.5 8.90451
      vertex 60.0045 -37.5 8.70611
      vertex 60.0045 -37.5 8.90451
    endloop
  endfacet
  facet normal -0.309017 0 0.951056
    outer loop
      vertex 59.7106 -34.5 8.61062
      vertex 60.0045 -37.5 8.70611
      vertex 60.0045 -34.5 8.70611
    endloop
  endfacet
  facet normal -0.309017 0 0.951056
    outer loop
      vertex 60.0045 -37.5 8.70611
      vertex 59.7106 -34.5 8.61062
      vertex 59.7106 -37.5 8.61062
    endloop
  endfacet
  facet normal -1 0 0
    outer loop
      vertex 0 -37.5 0
      vertex 0 -34.5 30
      vertex 0 -34.5 0
    endloop
  endfacet
  facet normal -1 -0 0
    outer loop
      vertex 0 -34.5 30
      vertex 0 -37.5 0
      vertex 0 -37.5 30
    endloop
  endfacet
  facet normal -0 0 1
    outer loop
      vertex 0 -34.5 30
      vertex 140 -37.5 30
      vertex 140 -34.5 30
    endloop
  endfacet
  facet normal 0 0 1
    outer loop
      vertex 140 -37.5 30
      vertex 0 -34.5 30
      vertex 0 -37.5 30
    endloop
  endfacet
  facet normal 1 -0 0
    outer loop
      vertex 140 -37.5 30
      vertex 140 -34.5 0
      vertex 140 -34.5 30
    endloop
  endfacet
  facet normal 1 0 0
    outer loop
      vertex 140 -34.5 0
      vertex 140 -37.5 30
      vertex 140 -37.5 0
    endloop
  endfacet
  facet normal 0 1 0
    outer loop
      vertex 14.1 -34.5 19.5
      vertex 11.8994 -34.5 15.9147
      vertex 10.4691 -34.5 17.0553
    endloop
  endfacet
  facet normal 0 1 -0
    outer loop
      vertex 14.1 -34.5 11.5
      vertex 11.8994 -34.5 15.9147
      vertex 14.1 -34.5 19.5
    endloop
  endfacet
  facet normal 0 1 0
    outer loop
      vertex 11.8994 -34.5 14.0853
      vertex 14.1 -34.5 11.5
      vertex 10.4691 -34.5 12.9447
    endloop
  endfacet
  facet normal 0 1 0
    outer loop
      vertex 11.8994 -34.5 15.9147
      vertex 14.1 -34.5 11.5
      vertex 11.8994 -34.5 14.0853
    endloop
  endfacet
  facet normal 0 1 0
    outer loop
      vertex 15.1 -34.5 20.5
      vertex 14.9873 -34.5 20.3873
      vertex 14.791 -34.5 20.4511
    endloop
  endfacet
  facet normal 0 1 0
    outer loop
      vertex 140 -34.5 30
      vertex 54.6 -34.5 20.5
      vertex 0 -34.5 30
    endloop
  endfacet
  facet normal 0 1 -0
    outer loop
      vertex 55.409 -34.5 20.0878
      vertex 54.6 -34.5 20.5
      vertex 140 -34.5 30
    endloop
  endfacet
  facet normal 0 1 0
    outer loop
      vertex 54.6 -34.5 20.5
      vertex 55.409 -34.5 20.0878
      vertex 54.8212 -34.5 20.2788
    endloop
  endfacet
  facet normal 0 1 -0
    outer loop
      vertex 60.5691 -34.5 17.0553
      vertex 55.409 -34.5 20.0878
      vertex 140 -34.5 30
    endloop
  endfacet
  facet normal -0 1 -0
    outer loop
      vertex 55.6 -34.5 19.5
      vertex 55.409 -34.5 20.0878
      vertex 60.5691 -34.5 17.0553
    endloop
  endfacet
  facet normal 0 1 0
    outer loop
      vertex 55.409 -34.5 20.0878
      vertex 55.6 -34.5 19.5
      vertex 55.409 -34.5 19.691
    endloop
  endfacet
  facet normal 0 1 0
    outer loop
      vertex 140 -34.5 30
      vertex 61.9994 -34.5 15.9147
      vertex 60.5691 -34.5 17.0553
    endloop
  endfacet
  facet normal 0 1 0
    outer loop
      vertex 140 -34.5 30
      vertex 61.9994 -34.5 14.0853
      vertex 61.9994 -34.5 15.9147
    endloop
  endfacet
  facet normal 0 1 -0
    outer loop
      vertex 140 -34.5 0
      vertex 61.9994 -34.5 14.0853
      vertex 140 -34.5 30
    endloop
  endfacet
  facet normal -0 1 0
    outer loop
      vertex 60.1 -34.5 11
      vertex 61.9994 -34.5 14.0853
      vertex 61.9994 -34.5 5.91471
    endloop
  endfacet
  facet normal 0 1 0
    outer loop
      vertex 60.5691 -34.5 12.9447
      vertex 60.0045 -34.5 11.2939
      vertex 59.6 -34.5 11.5
    endloop
  endfacet
  facet normal 0 1 0
    outer loop
      vertex 59.6 -34.5 11.5
      vertex 60.0045 -34.5 11.2939
      vertex 59.7106 -34.5 11.3894
    endloop
  endfacet
  facet normal 0 1 0
    outer loop
      vertex 60.5691 -34.5 12.9447
      vertex 60.1 -34.5 11
      vertex 60.0045 -34.5 11.2939
    endloop
  endfacet
  facet normal 0 1 0
    outer loop
      vertex 60.0045 -34.5 11.2939
      vertex 60.1 -34.5 11
      vertex 60.0045 -34.5 11.0955
    endloop
  endfacet
  facet normal 0 1 0
    outer loop
      vertex 61.9994 -34.5 14.0853
      vertex 60.1 -34.5 11
      vertex 60.5691 -34.5 12.9447
    endloop
  endfacet
  facet normal 0 1 0
    outer loop
      vertex 60.1 -34.5 11
      vertex 61.9994 -34.5 5.91471
      vertex 60.1 -34.5 9
    endloop
  endfacet
  facet normal -0 1 -0
    outer loop
      vertex 60.5691 -34.5 7.05534
      vertex 60.1 -34.5 9
      vertex 61.9994 -34.5 5.91471
    endloop
  endfacet
  facet normal -0 1 0
    outer loop
      vertex 60.0045 -34.5 8.70611
      vertex 60.1 -34.5 9
      vertex 60.5691 -34.5 7.05534
    endloop
  endfacet
  facet normal 0 1 0
    outer loop
      vertex 60.1 -34.5 9
      vertex 60.0045 -34.5 8.70611
      vertex 60.0045 -34.5 8.90451
    endloop
  endfacet
  facet normal 0 1 0
    outer loop
      vertex 58.7856 -34.5 6.64826
      vertex 59.6 -34.5 8.5
      vertex 60.5691 -34.5 7.05534
    endloop
  endfacet
  facet normal -0 1 0
    outer loop
      vertex 59.6 -34.5 8.5
      vertex 60.0045 -34.5 8.70611
      vertex 60.5691 -34.5 7.05534
    endloop
  endfacet
  facet normal 0 1 0
    outer loop
      vertex 60.0045 -34.5 8.70611
      vertex 59.6 -34.5 8.5
      vertex 59.7106 -34.5 8.61062
    endloop
  endfacet
  facet normal 0 1 0
    outer loop
      vertex 61.9994 -34.5 14.0853
      vertex 140 -34.5 0
      vertex 61.9994 -34.5 5.91471
    endloop
  endfacet
  facet normal 0 1 0
    outer loop
      vertex 61.9994 -34.5 5.91471
      vertex 140 -34.5 0
      vertex 61.9994 -34.5 4.08529
    endloop
  endfacet
  facet normal 0 1 0
    outer loop
      vertex 61.9994 -34.5 4.08529
      vertex 140 -34.5 0
      vertex 60.5691 -34.5 2.94466
    endloop
  endfacet
  facet normal 0 1 0
    outer loop
      vertex 55.409 -34.5 0
      vertex 60.5691 -34.5 2.94466
      vertex 140 -34.5 0
    endloop
  endfacet
  facet normal 0 1 0
    outer loop
      vertex 60.5691 -34.5 2.94466
      vertex 55.409 -34.5 0
      vertex 55.6 -34.5 0.5
    endloop
  endfacet
  facet normal 0 1 0
    outer loop
      vertex 55.6 -34.5 0.5
      vertex 55.409 -34.5 0
      vertex 55.409 -34.5 0.309017
    endloop
  endfacet
  facet normal 0 1 -0
    outer loop
      vertex 15.1 -34.5 20.5
      vertex 0 -34.5 30
      vertex 54.6 -34.5 20.5
    endloop
  endfacet
  facet normal 0 1 -0
    outer loop
      vertex 14.791 -34.5 20.4511
      vertex 0 -34.5 30
      vertex 15.1 -34.5 20.5
    endloop
  endfacet
  facet normal 0 1 0
    outer loop
      vertex 10.4691 -34.5 17.0553
      vertex 14.791 -34.5 20.4511
      vertex 14.1 -34.5 19.5
    endloop
  endfacet
  facet normal 0 1 0
    outer loop
      vertex 14.791 -34.5 20.4511
      vertex 10.4691 -34.5 17.0553
      vertex 8.68556 -34.5 16.6483
    endloop
  endfacet
  facet normal 0 1 0
    outer loop
      vertex 14.791 -34.5 20.4511
      vertex 8.68556 -34.5 16.6483
      vertex 0 -34.5 30
    endloop
  endfacet
  facet normal 0 1 -0
    outer loop
      vertex 7.8918 -34.5 15
      vertex 0 -34.5 30
      vertex 8.68556 -34.5 16.6483
    endloop
  endfacet
  facet normal 0 1 0
    outer loop
      vertex 7.8918 -34.5 5
      vertex 7.8918 -34.5 15
      vertex 8.68556 -34.5 13.3517
    endloop
  endfacet
  facet normal 0 1 0
    outer loop
      vertex 10.1 -34.5 11.5
      vertex 10.4691 -34.5 12.9447
      vertex 14.1 -34.5 11.5
    endloop
  endfacet
  facet normal 0 1 0
    outer loop
      vertex 9.94549 -34.5 11.4755
      vertex 10.4691 -34.5 12.9447
      vertex 10.1 -34.5 11.5
    endloop
  endfacet
  facet normal 0 1 0
    outer loop
      vertex 10.4691 -34.5 12.9447
      vertex 9.94549 -34.5 11.4755
      vertex 8.68556 -34.5 13.3517
    endloop
  endfacet
  facet normal 0 1 -0
    outer loop
      vertex 9.6 -34.5 11
      vertex 8.68556 -34.5 13.3517
      vertex 9.94549 -34.5 11.4755
    endloop
  endfacet
  facet normal 0 1 0
    outer loop
      vertex 8.68556 -34.5 6.64826
      vertex 8.68556 -34.5 13.3517
      vertex 9.6 -34.5 11
    endloop
  endfacet
  facet normal 0 1 0
    outer loop
      vertex 8.68556 -34.5 6.64826
      vertex 9.6 -34.5 11
      vertex 9.6 -34.5 9
    endloop
  endfacet
  facet normal 0 1 0
    outer loop
      vertex 10.4691 -34.5 7.05534
      vertex 9.94549 -34.5 8.52447
      vertex 10.1 -34.5 8.5
    endloop
  endfacet
  facet normal 0 1 0
    outer loop
      vertex 8.68556 -34.5 6.64826
      vertex 9.94549 -34.5 8.52447
      vertex 10.4691 -34.5 7.05534
    endloop
  endfacet
  facet normal 0 1 0
    outer loop
      vertex 9.94549 -34.5 8.52447
      vertex 8.68556 -34.5 6.64826
      vertex 9.6 -34.5 9
    endloop
  endfacet
  facet normal 0 1 0
    outer loop
      vertex 7.8918 -34.5 5
      vertex 8.68556 -34.5 13.3517
      vertex 8.68556 -34.5 6.64826
    endloop
  endfacet
  facet normal 0 1 0
    outer loop
      vertex 7.8918 -34.5 15
      vertex 7.8918 -34.5 5
      vertex 0 -34.5 0
    endloop
  endfacet
  facet normal 0 1 0
    outer loop
      vertex 14.4633 -34.5 0
      vertex 10.4691 -34.5 2.94466
      vertex 14.1 -34.5 0.5
    endloop
  endfacet
  facet normal 0 1 0
    outer loop
      vertex 10.4691 -34.5 2.94466
      vertex 14.4633 -34.5 0
      vertex 8.68556 -34.5 3.35174
    endloop
  endfacet
  facet normal 0 1 0
    outer loop
      vertex 7.8918 -34.5 15
      vertex 0 -34.5 0
      vertex 0 -34.5 30
    endloop
  endfacet
  facet normal 0 1 0
    outer loop
      vertex 8.68556 -34.5 3.35174
      vertex 0 -34.5 0
      vertex 7.8918 -34.5 5
    endloop
  endfacet
  facet normal 0 1 0
    outer loop
      vertex 0 -34.5 0
      vertex 8.68556 -34.5 3.35174
      vertex 14.4633 -34.5 0
    endloop
  endfacet
  facet normal 0 1 -0
    outer loop
      vertex 58.7856 -34.5 16.6483
      vertex 55.6 -34.5 19.5
      vertex 60.5691 -34.5 17.0553
    endloop
  endfacet
  facet normal 0 1 -0
    outer loop
      vertex 57.9918 -34.5 15
      vertex 55.6 -34.5 19.5
      vertex 58.7856 -34.5 16.6483
    endloop
  endfacet
  facet normal 0 1 0
    outer loop
      vertex 55.6 -34.5 11.5
      vertex 57.9918 -34.5 15
      vertex 58.7856 -34.5 13.3517
    endloop
  endfacet
  facet normal 0 1 -0
    outer loop
      vertex 59.6 -34.5 11.5
      vertex 58.7856 -34.5 13.3517
      vertex 60.5691 -34.5 12.9447
    endloop
  endfacet
  facet normal 0 1 0
    outer loop
      vertex 55.6 -34.5 11.5
      vertex 58.7856 -34.5 13.3517
      vertex 59.6 -34.5 11.5
    endloop
  endfacet
  facet normal 0 1 0
    outer loop
      vertex 57.9918 -34.5 15
      vertex 55.6 -34.5 11.5
      vertex 55.6 -34.5 19.5
    endloop
  endfacet
  facet normal 0 1 0
    outer loop
      vertex 14.1 -34.5 8.5
      vertex 10.4691 -34.5 7.05534
      vertex 10.1 -34.5 8.5
    endloop
  endfacet
  facet normal 0 1 0
    outer loop
      vertex 14.1 -34.5 8.5
      vertex 11.8994 -34.5 5.91471
      vertex 10.4691 -34.5 7.05534
    endloop
  endfacet
  facet normal 0 1 0
    outer loop
      vertex 14.1 -34.5 8.5
      vertex 11.8994 -34.5 4.08529
      vertex 11.8994 -34.5 5.91471
    endloop
  endfacet
  facet normal 0 1 0
    outer loop
      vertex 11.8994 -34.5 4.08529
      vertex 14.1 -34.5 0.5
      vertex 10.4691 -34.5 2.94466
    endloop
  endfacet
  facet normal 0 1 -0
    outer loop
      vertex 14.1 -34.5 0.5
      vertex 11.8994 -34.5 4.08529
      vertex 14.1 -34.5 8.5
    endloop
  endfacet
  facet normal 0 1 0
    outer loop
      vertex 10.0436 -34.5 8.55636
      vertex 10.1 -34.5 8.5
      vertex 9.94549 -34.5 8.52447
    endloop
  endfacet
  facet normal 0 1 0
    outer loop
      vertex 10.1 -34.5 11.5
      vertex 10.0436 -34.5 11.4436
      vertex 9.94549 -34.5 11.4755
    endloop
  endfacet
  facet normal 0 1 0
    outer loop
      vertex 59.6 -34.5 8.5
      vertex 58.7856 -34.5 6.64826
      vertex 55.6 -34.5 8.5
    endloop
  endfacet
  facet normal 0 1 -0
    outer loop
      vertex 57.9918 -34.5 5
      vertex 55.6 -34.5 8.5
      vertex 58.7856 -34.5 6.64826
    endloop
  endfacet
  facet normal 0 1 0
    outer loop
      vertex 55.6 -34.5 0.5
      vertex 57.9918 -34.5 5
      vertex 58.7856 -34.5 3.35174
    endloop
  endfacet
  facet normal 0 1 0
    outer loop
      vertex 57.9918 -34.5 5
      vertex 55.6 -34.5 0.5
      vertex 55.6 -34.5 8.5
    endloop
  endfacet
  facet normal 0 1 0
    outer loop
      vertex 55.6 -34.5 0.5
      vertex 58.7856 -34.5 3.35174
      vertex 60.5691 -34.5 2.94466
    endloop
  endfacet
  facet normal 0 0 -1
    outer loop
      vertex 0 -37.5 0
      vertex 14.4633 -34.5 0
      vertex 14.4633 -37.5 0
    endloop
  endfacet
  facet normal -0 0 -1
    outer loop
      vertex 14.4633 -34.5 0
      vertex 0 -37.5 0
      vertex 0 -34.5 0
    endloop
  endfacet
  facet normal 0 0 -1
    outer loop
      vertex 55.409 -37.5 0
      vertex 140 -34.5 0
      vertex 140 -37.5 0
    endloop
  endfacet
  facet normal -0 0 -1
    outer loop
      vertex 140 -34.5 0
      vertex 55.409 -37.5 0
      vertex 55.409 -34.5 0
    endloop
  endfacet
  facet normal 0 -1 0
    outer loop
      vertex 58.7856 -37.5 6.64826
      vertex 59.6 -37.5 8.5
      vertex 55.6 -37.5 8.5
    endloop
  endfacet
  facet normal 0 -1 -0
    outer loop
      vertex 59.6 -37.5 8.5
      vertex 58.7856 -37.5 6.64826
      vertex 60.5691 -37.5 7.05534
    endloop
  endfacet
  facet normal 0 -1 0
    outer loop
      vertex 55.6 -37.5 8.5
      vertex 57.9918 -37.5 5
      vertex 58.7856 -37.5 6.64826
    endloop
  endfacet
  facet normal 0 -1 0
    outer loop
      vertex 55.6 -37.5 0.5
      vertex 57.9918 -37.5 5
      vertex 55.6 -37.5 8.5
    endloop
  endfacet
  facet normal 0 -1 -0
    outer loop
      vertex 58.7856 -37.5 3.35174
      vertex 55.6 -37.5 0.5
      vertex 60.5691 -37.5 2.94466
    endloop
  endfacet
  facet normal 0 -1 -0
    outer loop
      vertex 57.9918 -37.5 5
      vertex 55.6 -37.5 0.5
      vertex 58.7856 -37.5 3.35174
    endloop
  endfacet
  facet normal 0 -1 -0
    outer loop
      vertex 10.0436 -37.5 8.55636
      vertex 9.94549 -37.5 8.52447
      vertex 10.1 -37.5 8.5
    endloop
  endfacet
  facet normal 0 -1 0
    outer loop
      vertex 11.8994 -37.5 5.91471
      vertex 14.1 -37.5 8.5
      vertex 10.4691 -37.5 7.05534
    endloop
  endfacet
  facet normal 0 -1 0
    outer loop
      vertex 11.8994 -37.5 4.08529
      vertex 14.1 -37.5 8.5
      vertex 11.8994 -37.5 5.91471
    endloop
  endfacet
  facet normal 0 -1 0
    outer loop
      vertex 11.8994 -37.5 4.08529
      vertex 14.1 -37.5 0.5
      vertex 14.1 -37.5 8.5
    endloop
  endfacet
  facet normal 0 -1 0
    outer loop
      vertex 14.1 -37.5 0.5
      vertex 11.8994 -37.5 4.08529
      vertex 10.4691 -37.5 2.94466
    endloop
  endfacet
  facet normal 0 -1 0
    outer loop
      vertex 140 -37.5 30
      vertex 121.038 -37.5 16.0392
      vertex 123 -37.5 16.35
    endloop
  endfacet
  facet normal 0 -1 0
    outer loop
      vertex 119.268 -37.5 15.1373
      vertex 60.5691 -37.5 17.0553
      vertex 61.9994 -37.5 15.9147
    endloop
  endfacet
  facet normal 0 -1 0
    outer loop
      vertex 60.5691 -37.5 17.0553
      vertex 119.268 -37.5 15.1373
      vertex 121.038 -37.5 16.0392
    endloop
  endfacet
  facet normal 0 -1 0
    outer loop
      vertex 116.65 -37.5 10
      vertex 61.9994 -37.5 15.9147
      vertex 61.9994 -37.5 14.0853
    endloop
  endfacet
  facet normal 0 -1 0
    outer loop
      vertex 61.9994 -37.5 15.9147
      vertex 117.863 -37.5 13.7324
      vertex 119.268 -37.5 15.1373
    endloop
  endfacet
  facet normal 0 -1 0
    outer loop
      vertex 60.1 -37.5 11
      vertex 61.9994 -37.5 14.0853
      vertex 60.5691 -37.5 12.9447
    endloop
  endfacet
  facet normal 0 -1 0
    outer loop
      vertex 61.9994 -37.5 15.9147
      vertex 116.961 -37.5 11.9623
      vertex 117.863 -37.5 13.7324
    endloop
  endfacet
  facet normal 0 -1 0
    outer loop
      vertex 55.6 -37.5 19.5
      vertex 58.7856 -37.5 16.6483
      vertex 60.5691 -37.5 17.0553
    endloop
  endfacet
  facet normal 0 -1 0
    outer loop
      vertex 55.6 -37.5 19.5
      vertex 57.9918 -37.5 15
      vertex 58.7856 -37.5 16.6483
    endloop
  endfacet
  facet normal 0 -1 0
    outer loop
      vertex 55.6 -37.5 11.5
      vertex 57.9918 -37.5 15
      vertex 55.6 -37.5 19.5
    endloop
  endfacet
  facet normal 0 -1 -0
    outer loop
      vertex 57.9918 -37.5 15
      vertex 55.6 -37.5 11.5
      vertex 58.7856 -37.5 13.3517
    endloop
  endfacet
  facet normal 0 -1 0
    outer loop
      vertex 59.6 -37.5 11.5
      vertex 58.7856 -37.5 13.3517
      vertex 55.6 -37.5 11.5
    endloop
  endfacet
  facet normal 0 -1 0
    outer loop
      vertex 58.7856 -37.5 13.3517
      vertex 59.6 -37.5 11.5
      vertex 60.5691 -37.5 12.9447
    endloop
  endfacet
  facet normal 0 -1 0
    outer loop
      vertex 60.0045 -37.5 11.2939
      vertex 60.5691 -37.5 12.9447
      vertex 59.6 -37.5 11.5
    endloop
  endfacet
  facet normal 0 -1 0
    outer loop
      vertex 60.0045 -37.5 11.2939
      vertex 59.6 -37.5 11.5
      vertex 59.7106 -37.5 11.3894
    endloop
  endfacet
  facet normal 0 -1 0
    outer loop
      vertex 60.1 -37.5 11
      vertex 60.5691 -37.5 12.9447
      vertex 60.0045 -37.5 11.2939
    endloop
  endfacet
  facet normal 0 -1 0
    outer loop
      vertex 60.1 -37.5 11
      vertex 60.0045 -37.5 11.2939
      vertex 60.0045 -37.5 11.0955
    endloop
  endfacet
  facet normal 0 -1 -0
    outer loop
      vertex 61.9994 -37.5 14.0853
      vertex 60.1 -37.5 11
      vertex 61.9994 -37.5 5.91471
    endloop
  endfacet
  facet normal 0 -1 0
    outer loop
      vertex 61.9994 -37.5 14.0853
      vertex 61.9994 -37.5 5.91471
      vertex 116.65 -37.5 10
    endloop
  endfacet
  facet normal 0 -1 0
    outer loop
      vertex 140 -37.5 0
      vertex 119.825 -37.5 10
      vertex 116.65 -37.5 10
    endloop
  endfacet
  facet normal 0 -1 0
    outer loop
      vertex 119.825 -37.5 10
      vertex 140 -37.5 0
      vertex 126.175 -37.5 10
    endloop
  endfacet
  facet normal 0 -1 0
    outer loop
      vertex 61.9994 -37.5 15.9147
      vertex 116.65 -37.5 10
      vertex 116.961 -37.5 11.9623
    endloop
  endfacet
  facet normal 0 -1 0
    outer loop
      vertex 61.9994 -37.5 5.91471
      vertex 60.1 -37.5 11
      vertex 60.1 -37.5 9
    endloop
  endfacet
  facet normal 0 -1 0
    outer loop
      vertex 54.6 -37.5 20.5
      vertex 0 -37.5 30
      vertex 15.1 -37.5 20.5
    endloop
  endfacet
  facet normal 0 -1 0
    outer loop
      vertex 0 -37.5 30
      vertex 14.791 -37.5 20.4511
      vertex 15.1 -37.5 20.5
    endloop
  endfacet
  facet normal 0 -1 0
    outer loop
      vertex 8.68556 -37.5 16.6483
      vertex 14.791 -37.5 20.4511
      vertex 0 -37.5 30
    endloop
  endfacet
  facet normal -0 -1 0
    outer loop
      vertex 10.4691 -37.5 17.0553
      vertex 14.791 -37.5 20.4511
      vertex 8.68556 -37.5 16.6483
    endloop
  endfacet
  facet normal 0 -1 0
    outer loop
      vertex 14.791 -37.5 20.4511
      vertex 10.4691 -37.5 17.0553
      vertex 14.1 -37.5 19.5
    endloop
  endfacet
  facet normal 0 -1 0
    outer loop
      vertex 0 -37.5 30
      vertex 7.8918 -37.5 15
      vertex 8.68556 -37.5 16.6483
    endloop
  endfacet
  facet normal 0 -1 0
    outer loop
      vertex 0 -37.5 0
      vertex 7.8918 -37.5 15
      vertex 0 -37.5 30
    endloop
  endfacet
  facet normal 0 -1 0
    outer loop
      vertex 9.94549 -37.5 11.4755
      vertex 10.4691 -37.5 12.9447
      vertex 8.68556 -37.5 13.3517
    endloop
  endfacet
  facet normal 0 -1 0
    outer loop
      vertex 10.4691 -37.5 12.9447
      vertex 9.94549 -37.5 11.4755
      vertex 10.1 -37.5 11.5
    endloop
  endfacet
  facet normal 0 -1 0
    outer loop
      vertex 8.68556 -37.5 13.3517
      vertex 9.6 -37.5 11
      vertex 9.94549 -37.5 11.4755
    endloop
  endfacet
  facet normal -0 -1 0
    outer loop
      vertex 7.8918 -37.5 5
      vertex 7.8918 -37.5 15
      vertex 0 -37.5 0
    endloop
  endfacet
  facet normal 0 -1 0
    outer loop
      vertex 7.8918 -37.5 15
      vertex 7.8918 -37.5 5
      vertex 8.68556 -37.5 13.3517
    endloop
  endfacet
  facet normal 0 -1 0
    outer loop
      vertex 10.1 -37.5 8.5
      vertex 10.4691 -37.5 7.05534
      vertex 14.1 -37.5 8.5
    endloop
  endfacet
  facet normal 0 -1 0
    outer loop
      vertex 9.94549 -37.5 8.52447
      vertex 10.4691 -37.5 7.05534
      vertex 10.1 -37.5 8.5
    endloop
  endfacet
  facet normal 0 -1 0
    outer loop
      vertex 8.68556 -37.5 6.64826
      vertex 9.94549 -37.5 8.52447
      vertex 9.6 -37.5 9
    endloop
  endfacet
  facet normal 0 -1 0
    outer loop
      vertex 8.68556 -37.5 13.3517
      vertex 8.68556 -37.5 6.64826
      vertex 9.6 -37.5 11
    endloop
  endfacet
  facet normal 0 -1 -0
    outer loop
      vertex 9.94549 -37.5 8.52447
      vertex 8.68556 -37.5 6.64826
      vertex 10.4691 -37.5 7.05534
    endloop
  endfacet
  facet normal 0 -1 -0
    outer loop
      vertex 9.6 -37.5 11
      vertex 8.68556 -37.5 6.64826
      vertex 9.6 -37.5 9
    endloop
  endfacet
  facet normal 0 -1 0
    outer loop
      vertex 14.4633 -37.5 0
      vertex 10.4691 -37.5 2.94466
      vertex 8.68556 -37.5 3.35174
    endloop
  endfacet
  facet normal 0 -1 -0
    outer loop
      vertex 8.68556 -37.5 13.3517
      vertex 7.8918 -37.5 5
      vertex 8.68556 -37.5 6.64826
    endloop
  endfacet
  facet normal 0 -1 0
    outer loop
      vertex 0 -37.5 0
      vertex 8.68556 -37.5 3.35174
      vertex 7.8918 -37.5 5
    endloop
  endfacet
  facet normal 0 -1 0
    outer loop
      vertex 14.4633 -37.5 0
      vertex 8.68556 -37.5 3.35174
      vertex 0 -37.5 0
    endloop
  endfacet
  facet normal 0 -1 0
    outer loop
      vertex 10.4691 -37.5 2.94466
      vertex 14.4633 -37.5 0
      vertex 14.1 -37.5 0.5
    endloop
  endfacet
  facet normal 0 -1 0
    outer loop
      vertex 0 -37.5 30
      vertex 54.6 -37.5 20.5
      vertex 140 -37.5 30
    endloop
  endfacet
  facet normal 0 -1 0
    outer loop
      vertex 55.409 -37.5 20.0878
      vertex 54.6 -37.5 20.5
      vertex 54.8212 -37.5 20.2788
    endloop
  endfacet
  facet normal 0 -1 0
    outer loop
      vertex 54.6 -37.5 20.5
      vertex 55.409 -37.5 20.0878
      vertex 140 -37.5 30
    endloop
  endfacet
  facet normal 0 -1 0
    outer loop
      vertex 55.6 -37.5 19.5
      vertex 55.409 -37.5 20.0878
      vertex 55.409 -37.5 19.691
    endloop
  endfacet
  facet normal 0 -1 0
    outer loop
      vertex 55.409 -37.5 20.0878
      vertex 55.6 -37.5 19.5
      vertex 60.5691 -37.5 17.0553
    endloop
  endfacet
  facet normal 0 -1 0
    outer loop
      vertex 55.409 -37.5 20.0878
      vertex 60.5691 -37.5 17.0553
      vertex 140 -37.5 30
    endloop
  endfacet
  facet normal 0 -1 0
    outer loop
      vertex 121.038 -37.5 16.0392
      vertex 140 -37.5 30
      vertex 60.5691 -37.5 17.0553
    endloop
  endfacet
  facet normal 0 -1 0
    outer loop
      vertex 124.962 -37.5 16.0392
      vertex 140 -37.5 30
      vertex 123 -37.5 16.35
    endloop
  endfacet
  facet normal 0 -1 0
    outer loop
      vertex 126.732 -37.5 15.1373
      vertex 140 -37.5 30
      vertex 124.962 -37.5 16.0392
    endloop
  endfacet
  facet normal 0 -1 0
    outer loop
      vertex 128.137 -37.5 13.7324
      vertex 140 -37.5 30
      vertex 126.732 -37.5 15.1373
    endloop
  endfacet
  facet normal 0 -1 0
    outer loop
      vertex 129.039 -37.5 11.9623
      vertex 140 -37.5 30
      vertex 128.137 -37.5 13.7324
    endloop
  endfacet
  facet normal 0 -1 0
    outer loop
      vertex 140 -37.5 0
      vertex 129.039 -37.5 11.9623
      vertex 129.35 -37.5 10
    endloop
  endfacet
  facet normal 0 -1 0
    outer loop
      vertex 60.0045 -37.5 8.70611
      vertex 60.1 -37.5 9
      vertex 60.0045 -37.5 8.90451
    endloop
  endfacet
  facet normal 0 -1 -0
    outer loop
      vertex 60.1 -37.5 9
      vertex 60.0045 -37.5 8.70611
      vertex 60.5691 -37.5 7.05534
    endloop
  endfacet
  facet normal 0 -1 0
    outer loop
      vertex 59.6 -37.5 8.5
      vertex 60.0045 -37.5 8.70611
      vertex 59.7106 -37.5 8.61062
    endloop
  endfacet
  facet normal 0 -1 -0
    outer loop
      vertex 60.0045 -37.5 8.70611
      vertex 59.6 -37.5 8.5
      vertex 60.5691 -37.5 7.05534
    endloop
  endfacet
  facet normal 0 -1 0
    outer loop
      vertex 60.1 -37.5 9
      vertex 60.5691 -37.5 7.05534
      vertex 61.9994 -37.5 5.91471
    endloop
  endfacet
  facet normal 0 -1 0
    outer loop
      vertex 61.9994 -37.5 4.08529
      vertex 116.65 -37.5 10
      vertex 61.9994 -37.5 5.91471
    endloop
  endfacet
  facet normal 0 -1 0
    outer loop
      vertex 60.5691 -37.5 2.94466
      vertex 116.65 -37.5 10
      vertex 61.9994 -37.5 4.08529
    endloop
  endfacet
  facet normal 0 -1 -0
    outer loop
      vertex 116.65 -37.5 10
      vertex 60.5691 -37.5 2.94466
      vertex 140 -37.5 0
    endloop
  endfacet
  facet normal 0 -1 0
    outer loop
      vertex 55.409 -37.5 0
      vertex 60.5691 -37.5 2.94466
      vertex 55.6 -37.5 0.5
    endloop
  endfacet
  facet normal 0 -1 0
    outer loop
      vertex 55.409 -37.5 0
      vertex 55.6 -37.5 0.5
      vertex 55.409 -37.5 0.309017
    endloop
  endfacet
  facet normal 0 -1 0
    outer loop
      vertex 140 -37.5 0
      vertex 60.5691 -37.5 2.94466
      vertex 55.409 -37.5 0
    endloop
  endfacet
  facet normal 0 -1 0
    outer loop
      vertex 129.039 -37.5 11.9623
      vertex 140 -37.5 0
      vertex 140 -37.5 30
    endloop
  endfacet
  facet normal 0 -1 0
    outer loop
      vertex 126.175 -37.5 10
      vertex 140 -37.5 0
      vertex 129.35 -37.5 10
    endloop
  endfacet
  facet normal 0 -1 0
    outer loop
      vertex 15.1 -37.5 20.5
      vertex 14.791 -37.5 20.4511
      vertex 14.9873 -37.5 20.3873
    endloop
  endfacet
  facet normal 0 -1 0
    outer loop
      vertex 11.8994 -37.5 15.9147
      vertex 14.1 -37.5 19.5
      vertex 10.4691 -37.5 17.0553
    endloop
  endfacet
  facet normal 0 -1 0
    outer loop
      vertex 14.1 -37.5 11.5
      vertex 11.8994 -37.5 15.9147
      vertex 11.8994 -37.5 14.0853
    endloop
  endfacet
  facet normal 0 -1 0
    outer loop
      vertex 14.1 -37.5 11.5
      vertex 10.4691 -37.5 12.9447
      vertex 10.1 -37.5 11.5
    endloop
  endfacet
  facet normal 0 -1 0
    outer loop
      vertex 11.8994 -37.5 15.9147
      vertex 14.1 -37.5 11.5
      vertex 14.1 -37.5 19.5
    endloop
  endfacet
  facet normal 0 -1 0
    outer loop
      vertex 10.4691 -37.5 12.9447
      vertex 14.1 -37.5 11.5
      vertex 11.8994 -37.5 14.0853
    endloop
  endfacet
  facet normal 0 -1 0
    outer loop
      vertex 10.1 -37.5 11.5
      vertex 9.94549 -37.5 11.4755
      vertex 10.0436 -37.5 11.4436
    endloop
  endfacet
  facet normal 0 -1 0
    outer loop
      vertex 120.431 -37.5 11.8662
      vertex 123.981 -37.5 13.0196
      vertex 122.019 -37.5 13.0196
    endloop
  endfacet
  facet normal 0 -1 0
    outer loop
      vertex 120.431 -37.5 11.8662
      vertex 125.569 -37.5 11.8662
      vertex 123.981 -37.5 13.0196
    endloop
  endfacet
  facet normal 0 -1 0
    outer loop
      vertex 119.825 -37.5 10
      vertex 125.569 -37.5 11.8662
      vertex 120.431 -37.5 11.8662
    endloop
  endfacet
  facet normal 0 -1 -0
    outer loop
      vertex 125.569 -37.5 11.8662
      vertex 119.825 -37.5 10
      vertex 126.175 -37.5 10
    endloop
  endfacet
  facet normal 0.987688 -0 0.156434
    outer loop
      vertex 129.039 -55 11.9623
      vertex 129.35 -37.5 10
      vertex 129.039 -37.5 11.9623
    endloop
  endfacet
  facet normal 0.987688 0 0.156434
    outer loop
      vertex 129.35 -37.5 10
      vertex 129.039 -55 11.9623
      vertex 129.35 -55 10
    endloop
  endfacet
  facet normal -0.987688 0 0.156434
    outer loop
      vertex 116.65 -55 10
      vertex 116.961 -37.5 11.9623
      vertex 116.65 -37.5 10
    endloop
  endfacet
  facet normal -0.987688 0 0.156434
    outer loop
      vertex 116.961 -37.5 11.9623
      vertex 116.65 -55 10
      vertex 116.961 -55 11.9623
    endloop
  endfacet
  facet normal 0.156434 1.07649e-07 0.987688
    outer loop
      vertex 123 -37.5 16.35
      vertex 124.962 -55 16.0392
      vertex 124.962 -37.5 16.0392
    endloop
  endfacet
  facet normal 0.156434 1.07649e-07 0.987688
    outer loop
      vertex 124.962 -55 16.0392
      vertex 123 -37.5 16.35
      vertex 123 -55 16.35
    endloop
  endfacet
  facet normal -0.156434 0 -0.987688
    outer loop
      vertex 121.038 -55 3.96079
      vertex 123 -37.5 3.65
      vertex 123 -55 3.65
    endloop
  endfacet
  facet normal -0.156434 0 -0.987688
    outer loop
      vertex 123 -37.5 3.65
      vertex 121.038 -55 3.96079
      vertex 121.038 -37.5 3.96079
    endloop
  endfacet
  facet normal 0 1 -0
    outer loop
      vertex 129.039 -37.5 8.03774
      vertex 126.175 -37.5 10
      vertex 129.35 -37.5 10
    endloop
  endfacet
  facet normal 0 1 0
    outer loop
      vertex 126.175 -37.5 10
      vertex 129.039 -37.5 8.03774
      vertex 125.569 -37.5 8.13378
    endloop
  endfacet
  facet normal 0 1 -0
    outer loop
      vertex 128.137 -37.5 6.26756
      vertex 125.569 -37.5 8.13378
      vertex 129.039 -37.5 8.03774
    endloop
  endfacet
  facet normal 0 1 0
    outer loop
      vertex 125.569 -37.5 8.13378
      vertex 126.732 -37.5 4.86274
      vertex 123.981 -37.5 6.9804
    endloop
  endfacet
  facet normal 0 1 -0
    outer loop
      vertex 126.732 -37.5 4.86274
      vertex 125.569 -37.5 8.13378
      vertex 128.137 -37.5 6.26756
    endloop
  endfacet
  facet normal 0 1 0
    outer loop
      vertex 116.961 -37.5 8.03774
      vertex 119.825 -37.5 10
      vertex 120.431 -37.5 8.13378
    endloop
  endfacet
  facet normal 0 1 0
    outer loop
      vertex 119.825 -37.5 10
      vertex 116.961 -37.5 8.03774
      vertex 116.65 -37.5 10
    endloop
  endfacet
  facet normal 0 1 0
    outer loop
      vertex 119.268 -37.5 4.86274
      vertex 120.431 -37.5 8.13378
      vertex 122.019 -37.5 6.9804
    endloop
  endfacet
  facet normal 0 1 0
    outer loop
      vertex 120.431 -37.5 8.13378
      vertex 117.863 -37.5 6.26756
      vertex 116.961 -37.5 8.03774
    endloop
  endfacet
  facet normal 0 1 -0
    outer loop
      vertex 124.962 -37.5 3.96079
      vertex 123.981 -37.5 6.9804
      vertex 126.732 -37.5 4.86274
    endloop
  endfacet
  facet normal 0 1 0
    outer loop
      vertex 123 -37.5 3.65
      vertex 123.981 -37.5 6.9804
      vertex 124.962 -37.5 3.96079
    endloop
  endfacet
  facet normal 0 1 0
    outer loop
      vertex 120.431 -37.5 8.13378
      vertex 119.268 -37.5 4.86274
      vertex 117.863 -37.5 6.26756
    endloop
  endfacet
  facet normal 0 1 0
    outer loop
      vertex 123.981 -37.5 6.9804
      vertex 123 -37.5 3.65
      vertex 122.019 -37.5 6.9804
    endloop
  endfacet
  facet normal 0 1 0
    outer loop
      vertex 122.019 -37.5 6.9804
      vertex 121.038 -37.5 3.96079
      vertex 119.268 -37.5 4.86274
    endloop
  endfacet
  facet normal 0 1 0
    outer loop
      vertex 122.019 -37.5 6.9804
      vertex 123 -37.5 3.65
      vertex 121.038 -37.5 3.96079
    endloop
  endfacet
  facet normal 0.707108 -0 0.707105
    outer loop
      vertex 126.732 -55 15.1373
      vertex 128.137 -37.5 13.7324
      vertex 126.732 -37.5 15.1373
    endloop
  endfacet
  facet normal 0.707108 0 0.707105
    outer loop
      vertex 128.137 -37.5 13.7324
      vertex 126.732 -55 15.1373
      vertex 128.137 -55 13.7324
    endloop
  endfacet
  facet normal 0.891004 -0 0.453995
    outer loop
      vertex 128.137 -55 13.7324
      vertex 129.039 -37.5 11.9623
      vertex 128.137 -37.5 13.7324
    endloop
  endfacet
  facet normal 0.891004 0 0.453995
    outer loop
      vertex 129.039 -37.5 11.9623
      vertex 128.137 -55 13.7324
      vertex 129.039 -55 11.9623
    endloop
  endfacet
  facet normal 0.45399 0 0.891007
    outer loop
      vertex 124.962 -37.5 16.0392
      vertex 126.732 -55 15.1373
      vertex 126.732 -37.5 15.1373
    endloop
  endfacet
  facet normal 0.453991 9.7112e-08 0.891006
    outer loop
      vertex 126.732 -55 15.1373
      vertex 124.962 -37.5 16.0392
      vertex 124.962 -55 16.0392
    endloop
  endfacet
  facet normal -0.45399 9.7112e-08 0.891007
    outer loop
      vertex 119.268 -37.5 15.1373
      vertex 121.038 -55 16.0392
      vertex 121.038 -37.5 16.0392
    endloop
  endfacet
  facet normal -0.453991 0 0.891006
    outer loop
      vertex 121.038 -55 16.0392
      vertex 119.268 -37.5 15.1373
      vertex 119.268 -55 15.1373
    endloop
  endfacet
  facet normal -0.707106 0 0.707107
    outer loop
      vertex 117.863 -37.5 13.7324
      vertex 119.268 -55 15.1373
      vertex 119.268 -37.5 15.1373
    endloop
  endfacet
  facet normal -0.707106 0 0.707107
    outer loop
      vertex 119.268 -55 15.1373
      vertex 117.863 -37.5 13.7324
      vertex 117.863 -55 13.7324
    endloop
  endfacet
  facet normal -0.156434 1.07649e-07 0.987688
    outer loop
      vertex 121.038 -37.5 16.0392
      vertex 123 -55 16.35
      vertex 123 -37.5 16.35
    endloop
  endfacet
  facet normal -0.156434 1.07649e-07 0.987688
    outer loop
      vertex 123 -55 16.35
      vertex 121.038 -37.5 16.0392
      vertex 121.038 -55 16.0392
    endloop
  endfacet
  facet normal 0.891004 0 -0.453995
    outer loop
      vertex 129.039 -55 8.03774
      vertex 128.137 -37.5 6.26756
      vertex 129.039 -37.5 8.03774
    endloop
  endfacet
  facet normal 0.891004 0 -0.453995
    outer loop
      vertex 128.137 -37.5 6.26756
      vertex 129.039 -55 8.03774
      vertex 128.137 -55 6.26756
    endloop
  endfacet
  facet normal -0.707106 0 -0.707107
    outer loop
      vertex 117.863 -55 6.26756
      vertex 119.268 -37.5 4.86274
      vertex 119.268 -55 4.86274
    endloop
  endfacet
  facet normal -0.707106 0 -0.707107
    outer loop
      vertex 119.268 -37.5 4.86274
      vertex 117.863 -55 6.26756
      vertex 117.863 -37.5 6.26756
    endloop
  endfacet
  facet normal -0.987688 0 -0.156434
    outer loop
      vertex 116.961 -55 8.03774
      vertex 116.65 -37.5 10
      vertex 116.961 -37.5 8.03774
    endloop
  endfacet
  facet normal -0.987688 -0 -0.156434
    outer loop
      vertex 116.65 -37.5 10
      vertex 116.961 -55 8.03774
      vertex 116.65 -55 10
    endloop
  endfacet
  facet normal -0.891007 0 0.453989
    outer loop
      vertex 116.961 -55 11.9623
      vertex 117.863 -37.5 13.7324
      vertex 116.961 -37.5 11.9623
    endloop
  endfacet
  facet normal -0.891007 0 0.453989
    outer loop
      vertex 117.863 -37.5 13.7324
      vertex 116.961 -55 11.9623
      vertex 117.863 -55 13.7324
    endloop
  endfacet
  facet normal 0 -1 0
    outer loop
      vertex 122.019 -55 13.0196
      vertex 123 -55 16.35
      vertex 121.038 -55 16.0392
    endloop
  endfacet
  facet normal 0 -1 0
    outer loop
      vertex 122.019 -55 13.0196
      vertex 121.038 -55 16.0392
      vertex 119.268 -55 15.1373
    endloop
  endfacet
  facet normal 0 -1 0
    outer loop
      vertex 123.981 -55 13.0196
      vertex 123 -55 16.35
      vertex 122.019 -55 13.0196
    endloop
  endfacet
  facet normal 0 -1 0
    outer loop
      vertex 120.431 -55 11.8662
      vertex 119.268 -55 15.1373
      vertex 117.863 -55 13.7324
    endloop
  endfacet
  facet normal 0 -1 0
    outer loop
      vertex 123 -55 16.35
      vertex 123.981 -55 13.0196
      vertex 124.962 -55 16.0392
    endloop
  endfacet
  facet normal 0 -1 -0
    outer loop
      vertex 124.962 -55 16.0392
      vertex 123.981 -55 13.0196
      vertex 126.732 -55 15.1373
    endloop
  endfacet
  facet normal 0 -1 0
    outer loop
      vertex 120.431 -55 11.8662
      vertex 117.863 -55 13.7324
      vertex 116.961 -55 11.9623
    endloop
  endfacet
  facet normal 0 -1 0
    outer loop
      vertex 119.268 -55 15.1373
      vertex 120.431 -55 11.8662
      vertex 122.019 -55 13.0196
    endloop
  endfacet
  facet normal 0 -1 0
    outer loop
      vertex 119.825 -55 10
      vertex 116.961 -55 11.9623
      vertex 116.65 -55 10
    endloop
  endfacet
  facet normal 0 -1 0
    outer loop
      vertex 116.961 -55 11.9623
      vertex 119.825 -55 10
      vertex 120.431 -55 11.8662
    endloop
  endfacet
  facet normal 0 -1 0
    outer loop
      vertex 116.961 -55 8.03774
      vertex 119.825 -55 10
      vertex 116.65 -55 10
    endloop
  endfacet
  facet normal 0 -1 -0
    outer loop
      vertex 119.825 -55 10
      vertex 116.961 -55 8.03774
      vertex 120.431 -55 8.13378
    endloop
  endfacet
  facet normal 0 -1 0
    outer loop
      vertex 117.863 -55 6.26756
      vertex 120.431 -55 8.13378
      vertex 116.961 -55 8.03774
    endloop
  endfacet
  facet normal 0 -1 -0
    outer loop
      vertex 120.431 -55 8.13378
      vertex 119.268 -55 4.86274
      vertex 122.019 -55 6.9804
    endloop
  endfacet
  facet normal 0 -1 0
    outer loop
      vertex 119.268 -55 4.86274
      vertex 120.431 -55 8.13378
      vertex 117.863 -55 6.26756
    endloop
  endfacet
  facet normal 0 -1 0
    outer loop
      vertex 125.569 -55 11.8662
      vertex 126.732 -55 15.1373
      vertex 123.981 -55 13.0196
    endloop
  endfacet
  facet normal 0 -1 -0
    outer loop
      vertex 126.732 -55 15.1373
      vertex 125.569 -55 11.8662
      vertex 128.137 -55 13.7324
    endloop
  endfacet
  facet normal 0 -1 -0
    outer loop
      vertex 128.137 -55 13.7324
      vertex 125.569 -55 11.8662
      vertex 129.039 -55 11.9623
    endloop
  endfacet
  facet normal 0 -1 0
    outer loop
      vertex 126.175 -55 10
      vertex 129.039 -55 11.9623
      vertex 125.569 -55 11.8662
    endloop
  endfacet
  facet normal 0 -1 0
    outer loop
      vertex 126.175 -55 10
      vertex 129.35 -55 10
      vertex 129.039 -55 11.9623
    endloop
  endfacet
  facet normal 0 -1 0
    outer loop
      vertex 129.039 -55 8.03774
      vertex 126.175 -55 10
      vertex 125.569 -55 8.13378
    endloop
  endfacet
  facet normal 0 -1 0
    outer loop
      vertex 126.175 -55 10
      vertex 129.039 -55 8.03774
      vertex 129.35 -55 10
    endloop
  endfacet
  facet normal 0 -1 0
    outer loop
      vertex 126.732 -55 4.86274
      vertex 125.569 -55 8.13378
      vertex 123.981 -55 6.9804
    endloop
  endfacet
  facet normal 0 -1 0
    outer loop
      vertex 125.569 -55 8.13378
      vertex 128.137 -55 6.26756
      vertex 129.039 -55 8.03774
    endloop
  endfacet
  facet normal 0 -1 0
    outer loop
      vertex 121.038 -55 3.96079
      vertex 122.019 -55 6.9804
      vertex 119.268 -55 4.86274
    endloop
  endfacet
  facet normal 0 -1 0
    outer loop
      vertex 123 -55 3.65
      vertex 122.019 -55 6.9804
      vertex 121.038 -55 3.96079
    endloop
  endfacet
  facet normal 0 -1 0
    outer loop
      vertex 125.569 -55 8.13378
      vertex 126.732 -55 4.86274
      vertex 128.137 -55 6.26756
    endloop
  endfacet
  facet normal 0 -1 0
    outer loop
      vertex 122.019 -55 6.9804
      vertex 123 -55 3.65
      vertex 123.981 -55 6.9804
    endloop
  endfacet
  facet normal 0 -1 0
    outer loop
      vertex 123.981 -55 6.9804
      vertex 124.962 -55 3.96079
      vertex 126.732 -55 4.86274
    endloop
  endfacet
  facet normal 0 -1 -0
    outer loop
      vertex 123.981 -55 6.9804
      vertex 123 -55 3.65
      vertex 124.962 -55 3.96079
    endloop
  endfacet
  facet normal 0.987688 0 -0.156434
    outer loop
      vertex 129.35 -55 10
      vertex 129.039 -37.5 8.03774
      vertex 129.35 -37.5 10
    endloop
  endfacet
  facet normal 0.987688 0 -0.156434
    outer loop
      vertex 129.039 -37.5 8.03774
      vertex 129.35 -55 10
      vertex 129.039 -55 8.03774
    endloop
  endfacet
  facet normal 0.156434 0 -0.987688
    outer loop
      vertex 123 -55 3.65
      vertex 124.962 -37.5 3.96079
      vertex 124.962 -55 3.96079
    endloop
  endfacet
  facet normal 0.156434 0 -0.987688
    outer loop
      vertex 124.962 -37.5 3.96079
      vertex 123 -55 3.65
      vertex 123 -37.5 3.65
    endloop
  endfacet
  facet normal 0.707108 0 -0.707105
    outer loop
      vertex 128.137 -55 6.26756
      vertex 126.732 -37.5 4.86274
      vertex 128.137 -37.5 6.26756
    endloop
  endfacet
  facet normal 0.707108 0 -0.707105
    outer loop
      vertex 126.732 -37.5 4.86274
      vertex 128.137 -55 6.26756
      vertex 126.732 -55 4.86274
    endloop
  endfacet
  facet normal -0.45399 0 -0.891007
    outer loop
      vertex 119.268 -55 4.86274
      vertex 121.038 -37.5 3.96079
      vertex 121.038 -55 3.96079
    endloop
  endfacet
  facet normal -0.45399 0 -0.891007
    outer loop
      vertex 121.038 -37.5 3.96079
      vertex 119.268 -55 4.86274
      vertex 119.268 -37.5 4.86274
    endloop
  endfacet
  facet normal -0.891007 0 -0.453989
    outer loop
      vertex 117.863 -55 6.26756
      vertex 116.961 -37.5 8.03774
      vertex 117.863 -37.5 6.26756
    endloop
  endfacet
  facet normal -0.891007 -0 -0.453989
    outer loop
      vertex 116.961 -37.5 8.03774
      vertex 117.863 -55 6.26756
      vertex 116.961 -55 8.03774
    endloop
  endfacet
  facet normal 0.45399 0 -0.891007
    outer loop
      vertex 124.962 -55 3.96079
      vertex 126.732 -37.5 4.86274
      vertex 126.732 -55 4.86274
    endloop
  endfacet
  facet normal 0.45399 0 -0.891007
    outer loop
      vertex 126.732 -37.5 4.86274
      vertex 124.962 -55 3.96079
      vertex 124.962 -37.5 3.96079
    endloop
  endfacet
  facet normal -0.951056 0 -0.30902
    outer loop
      vertex 126.175 -55 10
      vertex 125.569 -37.5 11.8662
      vertex 126.175 -37.5 10
    endloop
  endfacet
  facet normal -0.951056 -0 -0.30902
    outer loop
      vertex 125.569 -37.5 11.8662
      vertex 126.175 -55 10
      vertex 125.569 -55 11.8662
    endloop
  endfacet
  facet normal 0.951056 0 -0.30902
    outer loop
      vertex 120.431 -55 11.8662
      vertex 119.825 -37.5 10
      vertex 120.431 -37.5 11.8662
    endloop
  endfacet
  facet normal 0.951056 0 -0.30902
    outer loop
      vertex 119.825 -37.5 10
      vertex 120.431 -55 11.8662
      vertex 119.825 -55 10
    endloop
  endfacet
  facet normal 0 0 -1
    outer loop
      vertex 122.019 -55 13.0196
      vertex 123.981 -37.5 13.0196
      vertex 123.981 -55 13.0196
    endloop
  endfacet
  facet normal -0 0 -1
    outer loop
      vertex 123.981 -37.5 13.0196
      vertex 122.019 -55 13.0196
      vertex 122.019 -37.5 13.0196
    endloop
  endfacet
  facet normal -0.587785 0 -0.809017
    outer loop
      vertex 123.981 -55 13.0196
      vertex 125.569 -37.5 11.8662
      vertex 125.569 -55 11.8662
    endloop
  endfacet
  facet normal -0.587785 0 -0.809017
    outer loop
      vertex 125.569 -37.5 11.8662
      vertex 123.981 -55 13.0196
      vertex 123.981 -37.5 13.0196
    endloop
  endfacet
  facet normal 0.587785 0 -0.809017
    outer loop
      vertex 120.431 -55 11.8662
      vertex 122.019 -37.5 13.0196
      vertex 122.019 -55 13.0196
    endloop
  endfacet
  facet normal 0.587785 0 -0.809017
    outer loop
      vertex 122.019 -37.5 13.0196
      vertex 120.431 -55 11.8662
      vertex 120.431 -37.5 11.8662
    endloop
  endfacet
  facet normal -0.951056 0 0.30902
    outer loop
      vertex 125.569 -55 8.13378
      vertex 126.175 -37.5 10
      vertex 125.569 -37.5 8.13378
    endloop
  endfacet
  facet normal -0.951056 0 0.30902
    outer loop
      vertex 126.175 -37.5 10
      vertex 125.569 -55 8.13378
      vertex 126.175 -55 10
    endloop
  endfacet
  facet normal 0.951056 -0 0.30902
    outer loop
      vertex 119.825 -55 10
      vertex 120.431 -37.5 8.13378
      vertex 119.825 -37.5 10
    endloop
  endfacet
  facet normal 0.951056 0 0.30902
    outer loop
      vertex 120.431 -37.5 8.13378
      vertex 119.825 -55 10
      vertex 120.431 -55 8.13378
    endloop
  endfacet
  facet normal -0 0 1
    outer loop
      vertex 122.019 -37.5 6.9804
      vertex 123.981 -55 6.9804
      vertex 123.981 -37.5 6.9804
    endloop
  endfacet
  facet normal 0 0 1
    outer loop
      vertex 123.981 -55 6.9804
      vertex 122.019 -37.5 6.9804
      vertex 122.019 -55 6.9804
    endloop
  endfacet
  facet normal -0.587785 0 0.809017
    outer loop
      vertex 123.981 -37.5 6.9804
      vertex 125.569 -55 8.13378
      vertex 125.569 -37.5 8.13378
    endloop
  endfacet
  facet normal -0.587785 0 0.809017
    outer loop
      vertex 125.569 -55 8.13378
      vertex 123.981 -37.5 6.9804
      vertex 123.981 -55 6.9804
    endloop
  endfacet
  facet normal 0.587785 0 0.809017
    outer loop
      vertex 120.431 -37.5 8.13378
      vertex 122.019 -55 6.9804
      vertex 122.019 -37.5 6.9804
    endloop
  endfacet
  facet normal 0.587785 0 0.809017
    outer loop
      vertex 122.019 -55 6.9804
      vertex 120.431 -37.5 8.13378
      vertex 120.431 -55 8.13378
    endloop
  endfacet
endsolid OpenSCAD_Model
